<?xml version="1.0" encoding="iso-8859-1"?>
<!-- Generator: Adobe Illustrator 19.0.0, SVG Export Plug-In . SVG Version: 6.00 Build 0)  -->
<svg version="1.1" id="Capa_1" xmlns="http://www.w3.org/2000/svg" xmlns:xlink="http://www.w3.org/1999/xlink" x="0px"
  y="0px" viewBox="0 0 512 512" style="enable-background:new 0 0 512 512;" xml:space="preserve">
  <g>
    <g>
      <path d="M94.526,244.611c-0.769-2.359-2.809-4.074-5.267-4.432l-24.899-3.618L53.234,214.08c-2.203-4.445-9.484-4.445-11.687,0
			l-11.126,22.481l-24.84,3.618c-2.451,0.358-4.491,2.079-5.26,4.439c-0.769,2.353-0.13,4.941,1.649,6.674l18.016,17.56
			l-4.25,24.775c-0.417,2.444,0.587,4.921,2.594,6.381c2.014,1.453,4.68,1.643,6.87,0.489l22.188-11.7l22.253,11.7
			c0.952,0.502,1.995,0.75,3.031,0.75c1.349,0,2.698-0.424,3.839-1.238c2.008-1.467,3.011-3.937,2.594-6.381l-4.243-24.775
			l18.016-17.56C94.657,249.565,95.295,246.971,94.526,244.611z" fill="gray" />
    </g>
  </g>
  <g>
    <g>
      <path d="M198.815,244.611c-0.769-2.359-2.809-4.074-5.267-4.432l-24.899-3.618l-11.126-22.481c-2.203-4.445-9.484-4.445-11.687,0
			l-11.126,22.481l-24.84,3.618c-2.451,0.358-4.491,2.079-5.26,4.439c-0.769,2.353-0.13,4.941,1.649,6.674l18.016,17.56
			l-4.25,24.775c-0.417,2.444,0.587,4.928,2.594,6.381c2.008,1.453,4.68,1.643,6.87,0.489l22.188-11.7l22.253,11.7
			c0.952,0.502,1.995,0.75,3.031,0.75c1.349,0,2.698-0.424,3.839-1.238c2.008-1.467,3.011-3.937,2.594-6.381l-4.243-24.775
			l18.016-17.56C198.946,249.565,199.584,246.971,198.815,244.611z" fill="gray" />
    </g>
  </g>
  <g>
    <g>
      <path d="M303.104,244.611c-0.769-2.359-2.809-4.074-5.267-4.432l-24.899-3.618l-11.126-22.481c-2.203-4.445-9.484-4.445-11.687,0
			l-11.126,22.481l-24.84,3.618c-2.451,0.358-4.491,2.079-5.26,4.439c-0.769,2.353-0.13,4.941,1.649,6.674l18.016,17.56
			l-4.25,24.775c-0.417,2.444,0.587,4.921,2.594,6.381c2.014,1.453,4.68,1.643,6.87,0.489l22.187-11.7l22.253,11.7
			c0.952,0.502,1.995,0.75,3.031,0.75c1.349,0,2.698-0.424,3.839-1.238c2.008-1.467,3.011-3.937,2.594-6.381l-4.243-24.775
			l18.016-17.56C303.235,249.565,303.873,246.971,303.104,244.611z" fill="gray" />
    </g>
  </g>
  <g>
    <g>
      <path d="M407.393,244.611c-0.769-2.359-2.809-4.074-5.267-4.432l-24.899-3.618l-11.126-22.481c-2.203-4.445-9.484-4.445-11.687,0
			l-11.126,22.481l-24.84,3.618c-2.451,0.358-4.491,2.079-5.26,4.439c-0.769,2.353-0.13,4.941,1.649,6.674l18.016,17.56
			l-4.25,24.775c-0.417,2.444,0.587,4.921,2.594,6.381c2.014,1.453,4.68,1.643,6.87,0.489l22.187-11.7l22.253,11.7
			c0.952,0.502,1.995,0.75,3.031,0.75c1.349,0,2.698-0.424,3.839-1.238c2.008-1.467,3.011-3.937,2.594-6.381l-4.243-24.775
			l18.016-17.56C407.523,249.565,408.162,246.971,407.393,244.611z" fill="gray" />
    </g>
  </g>
  <g>
    <g>
      <path d="M511.682,244.611c-0.776-2.359-2.809-4.074-5.267-4.432l-24.899-3.618L470.39,214.08c-2.203-4.445-9.484-4.445-11.687,0
			l-11.126,22.481l-24.84,3.618c-2.451,0.358-4.491,2.079-5.26,4.439c-0.769,2.353-0.13,4.941,1.649,6.674l18.016,17.56
			l-4.25,24.775c-0.417,2.444,0.587,4.921,2.594,6.381c1.134,0.821,2.477,1.238,3.826,1.238c1.043,0,2.086-0.248,3.05-0.75
			l22.188-11.7l22.259,11.7c2.19,1.167,4.849,0.971,6.864-0.495c2.001-1.46,3.005-3.93,2.588-6.375l-4.243-24.775l18.016-17.56
			C511.812,249.565,512.445,246.971,511.682,244.611z" fill="gray" />
    </g>
  </g>
  <g>
  </g>
  <g>
  </g>
  <g>
  </g>
  <g>
  </g>
  <g>
  </g>
  <g>
  </g>
  <g>
  </g>
  <g>
  </g>
  <g>
  </g>
  <g>
  </g>
  <g>
  </g>
  <g>
  </g>
  <g>
  </g>
  <g>
  </g>
  <g>
  </g>
</svg>